<svg style="position: absolute; width: 0; height: 0;" width="0" height="0" version="1.1" xmlns="http://www.w3.org/2000/svg" xmlns:xlink="http://www.w3.org/1999/xlink">
<defs>
<symbol id="icon-bottom" viewBox="0 0 24 32">
<title>bottom</title>
<path class="path1" d="M12.012 19.676l-8.508-8.508-2.502 2.502 11.011 11.011 11.011-11.011-2.502-2.502z"></path>
</symbol>
<symbol id="icon-right" viewBox="0 0 24 32">
<title>right</title>
<path class="path1" d="M15.515 16.172l-8.508 8.508 2.502 2.503 11.011-11.011-11.011-11.011-2.502 2.502z"></path>
</symbol>
<symbol id="icon-eye" viewBox="0 0 32 32">
<title>eye</title>
<path class="path1" d="M16.016 6.162c-6.986 0-13.040 4.068-16.016 10.010 2.975 5.942 9.030 10.010 16.016 10.010s13.040-4.068 16.016-10.010c-2.975-5.942-9.030-10.010-16.016-10.010zM23.912 11.471c1.882 1.2 3.477 2.808 4.674 4.701-1.198 1.893-2.793 3.501-4.674 4.701-2.365 1.508-5.095 2.305-7.897 2.305s-5.532-0.797-7.897-2.305c-1.882-1.2-3.477-2.808-4.674-4.701 1.198-1.893 2.793-3.501 4.674-4.701 0.123-0.078 0.246-0.154 0.371-0.228-0.312 0.855-0.482 1.777-0.482 2.74 0 4.423 3.585 8.008 8.008 8.008s8.008-3.585 8.008-8.008c0-0.963-0.17-1.885-0.482-2.74 0.125 0.074 0.248 0.15 0.371 0.228zM16.016 12.981c0 1.659-1.344 3.003-3.003 3.003s-3.003-1.344-3.003-3.003 1.344-3.003 3.003-3.003 3.003 1.344 3.003 3.003z"></path>
</symbol>
<symbol id="icon-select" viewBox="0 0 32 32">
<title>select</title>
<path class="path1" d="M26.029 29.502v0l-4.325-8.667 8.563-1.481-20.258-15.194v25.323l6.323-5.962 4.325 8.667zM2.002 21.177v-18.018c0-0.543 0.458-1.001 1.001-1.001h22.021c0.543 0 1.001 0.458 1.001 1.001v8.008l2.002 1.501v-9.509c0-1.652-1.351-3.003-3.003-3.003h-22.021c-1.652 0-3.003 1.351-3.003 3.003v18.018c0 1.652 1.351 3.003 3.003 3.003h3.003v-2.002h-3.003c-0.543 0-1.001-0.458-1.001-1.001z"></path>
</symbol>
<symbol id="icon-edit" viewBox="0 0 32 32">
<title>edit</title>
<path class="path1" d="M27.026 0.156c2.764 0 5.005 2.241 5.005 5.005 0 1.127-0.373 2.166-1.001 3.003l-2.002 2.002-7.007-7.007 2.002-2.002c0.837-0.628 1.876-1.001 3.003-1.001zM2.002 23.179l-2.002 9.009 9.009-2.002 18.518-18.518-7.007-7.007-18.518 18.518zM22.384 11.529l-14.014 14.014-1.725-1.725 14.014-14.014 1.725 1.725z"></path>
</symbol>
<symbol id="icon-search" viewBox="0 0 32 32">
<title>search</title>
<path class="path1" d="M31.038 27.414l-7.587-6.453c-0.784-0.706-1.623-1.030-2.301-0.999 1.791-2.098 2.873-4.82 2.873-7.794 0-6.634-5.378-12.012-12.012-12.012s-12.012 5.378-12.012 12.012 5.378 12.012 12.012 12.012c2.975 0 5.696-1.082 7.794-2.873-0.031 0.678 0.293 1.516 0.999 2.301l6.453 7.587c1.105 1.228 2.91 1.331 4.011 0.23s0.998-2.906-0.23-4.011zM12.012 20.176c-4.423 0-8.008-3.585-8.008-8.008s3.585-8.008 8.008-8.008 8.008 3.585 8.008 8.008-3.585 8.008-8.008 8.008z"></path>
</symbol>
<symbol id="icon-undo" viewBox="0 0 32 32">
<title>undo</title>
<path class="path1" d="M23.831 32.188c3.557-6.445 4.157-16.275-9.818-15.948v7.94l-12.012-12.012 12.012-12.012v7.769c16.734-0.436 18.598 14.771 9.818 24.262z"></path>
</symbol>
<symbol id="icon-redo" viewBox="0 0 32 32">
<title>redo</title>
<path class="path1" d="M18.018 7.926v-7.769l12.012 12.012-12.012 12.012v-7.94c-13.975-0.328-13.375 9.503-9.818 15.948-8.781-9.491-6.916-24.698 9.818-24.262z"></path>
</symbol>
<symbol id="icon-delete" viewBox="0 0 32 32">
<title>delete</title>
<path class="path1" d="M6.006 32.188h20.020l2.002-22.021h-24.023zM20.020 4.16v-4.004h-8.008v4.004h-10.010v6.006l2.002-2.002h24.023l2.002 2.002v-6.006h-10.010zM18.018 4.16h-4.004v-2.002h4.004v2.002z"></path>
</symbol>
<symbol id="icon-menu" viewBox="0 0 32 32">
<title>menu</title>
<path class="path1" d="M2.002 6.162h28.027v6.006h-28.027zM2.002 14.17h28.027v6.006h-28.027zM2.002 22.178h28.027v6.006h-28.027z"></path>
</symbol>
<symbol id="icon-close" viewBox="0 0 32 32">
<title>close</title>
<path class="path1" d="M22.021 11.668l-1.501-1.501-4.504 4.504-4.504-4.504-1.501 1.501 4.504 4.504-4.504 4.504 1.501 1.501 4.504-4.504 4.504 4.504 1.501-1.501-4.504-4.504z"></path>
</symbol>
<symbol id="icon-next" viewBox="0 0 32 32">
<title>next</title>
<path class="path1" d="M13.971 8.708l-1.415 1.415 6.049 6.049-6.049 6.049 1.415 1.416 7.464-7.464z"></path>
</symbol>
<symbol id="icon-prev" viewBox="0 0 32 32">
<title>prev</title>
<path class="path1" d="M18.061 23.636l1.416-1.415-6.049-6.049 6.049-6.049-1.416-1.415-7.464 7.464z"></path>
</symbol>
<symbol id="icon-close2" viewBox="0 0 32 32">
<title>close2</title>
<path class="path1" d="M22.021 11.668l-1.501-1.501-4.504 4.504-4.504-4.504-1.501 1.501 4.504 4.504-4.504 4.504 1.501 1.501 4.504-4.504 4.504 4.504 1.501-1.501-4.504-4.504zM16.016 30.186c7.74 0 14.014-6.274 14.014-14.014s-6.274-14.014-14.014-14.014-14.014 6.274-14.014 14.014 6.274 14.014 14.014 14.014zM16.016 4.16c6.634 0 12.012 5.378 12.012 12.012s-5.378 12.012-12.012 12.012-12.012-5.378-12.012-12.012c0-6.634 5.378-12.012 12.012-12.012z"></path>
</symbol>
<symbol id="icon-move-left" viewBox="0 0 32 32">
<title>move-left</title>
<path class="path1" d="M1.001 16.172l15.015 15.015v-9.009h16.016v-12.012h-16.016v-9.009z"></path>
</symbol>
<symbol id="icon-move-right" viewBox="0 0 32 32">
<title>move-right</title>
<path class="path1" d="M31.030 16.172l-15.015-15.015v9.009h-16.016v12.012h16.016v9.009z"></path>
</symbol>
<symbol id="icon-move-up" viewBox="0 0 32 32">
<title>move-up</title>
<path class="path1" d="M16.016 1.157l-15.015 15.015h9.009v16.016h12.012v-16.016h9.009z"></path>
</symbol>
<symbol id="icon-move-down" viewBox="0 0 32 32">
<title>move-down</title>
<path class="path1" d="M16.016 31.187l15.015-15.015h-9.009v-16.016h-12.012v16.016h-9.009z"></path>
</symbol>
<symbol id="icon-next2" viewBox="0 0 32 32">
<title>next2</title>
<path class="path1" d="M13.971 8.708l-1.415 1.415 6.049 6.049-6.049 6.049 1.415 1.416 7.464-7.464zM16.016 2.158c-7.74 0-14.014 6.274-14.014 14.014s6.274 14.014 14.014 14.014 14.014-6.274 14.014-14.014-6.274-14.014-14.014-14.014zM16.016 28.184c-6.634 0-12.012-5.378-12.012-12.012s5.378-12.012 12.012-12.012c6.634 0 12.012 5.378 12.012 12.012s-5.378 12.012-12.012 12.012z"></path>
</symbol>
<symbol id="icon-prev2" viewBox="0 0 32 32">
<title>prev2</title>
<path class="path1" d="M18.061 23.636l1.416-1.415-6.049-6.049 6.049-6.049-1.416-1.415-7.464 7.464zM16.016 30.186c7.74 0 14.014-6.274 14.014-14.014s-6.274-14.014-14.014-14.014-14.014 6.274-14.014 14.014 6.274 14.014 14.014 14.014zM16.016 4.16c6.634 0 12.012 5.378 12.012 12.012s-5.378 12.012-12.012 12.012-12.012-5.378-12.012-12.012c0-6.634 5.378-12.012 12.012-12.012z"></path>
</symbol>
<symbol id="icon-download" viewBox="0 0 32 32">
<title>download</title>
<path class="path1" d="M5.005 12.168l11.011 11.011 11.011-11.011h-7.007v-12.012h-8.008v12.012zM28.027 14.17v12.012h-24.023v-12.012h-4.004v13.013c0 1.652 1.351 3.003 3.003 3.003h26.025c1.652 0 3.003-1.351 3.003-3.003v-13.013h-4.004z"></path>
</symbol>
<symbol id="icon-right2" viewBox="0 0 32 32">
<title>right2</title>
<path class="path1" d="M11.097 22.264l2.831 2.831 8.923-8.923-8.923-8.923-2.831 2.831 6.092 6.092zM16.016 0.156c-8.845 0-16.016 7.17-16.016 16.016s7.17 16.016 16.016 16.016 16.016-7.17 16.016-16.016-7.17-16.016-16.016-16.016zM16.016 29.185c-7.187 0-13.013-5.826-13.013-13.013s5.826-13.013 13.013-13.013 13.013 5.826 13.013 13.013-5.826 13.013-13.013 13.013z"></path>
</symbol>
<symbol id="icon-image" viewBox="0 0 32 32">
<title>image</title>
<path class="path1" d="M28.027 6.162v20.020h-24.023v-20.020h24.023zM29.028 2.158h-26.025c-1.652 0-3.003 1.351-3.003 3.003v22.021c0 1.652 1.351 3.003 3.003 3.003h26.025c1.652 0 3.003-1.351 3.003-3.003v-22.021c0-1.652-1.351-3.003-3.003-3.003v0zM20.020 19.175l-6.006-6.006-8.008 8.008v3.003h20.020v-11.011z"></path>
</symbol>
<symbol id="icon-left2" viewBox="0 0 32 32">
<title>left2</title>
<path class="path1" d="M20.935 10.080l-2.831-2.831-8.923 8.923 8.923 8.923 2.831-2.831-6.092-6.092zM16.016 32.188c8.845 0 16.016-7.17 16.016-16.016s-7.17-16.016-16.016-16.016-16.016 7.17-16.016 16.016 7.17 16.016 16.016 16.016zM16.016 3.159c7.187 0 13.013 5.826 13.013 13.013s-5.826 13.013-13.013 13.013-13.013-5.826-13.013-13.013 5.826-13.013 13.013-13.013z"></path>
</symbol>
<symbol id="icon-cancel" viewBox="0 0 32 32">
<title>cancel</title>
<path class="path1" d="M28.027 0.156h-24.023c-2.202 0-4.004 1.802-4.004 4.004v24.023c0 2.202 1.802 4.004 4.004 4.004h24.023c2.202 0 4.004-1.802 4.004-4.004v-24.023c0-2.202-1.802-4.004-4.004-4.004zM24.939 22.264l-2.831 2.831-6.092-6.092-6.092 6.092-2.831-2.831 6.092-6.092-6.092-6.092 2.831-2.831 6.092 6.092 6.092-6.092 2.831 2.831-6.092 6.092 6.092 6.092z"></path>
</symbol>
<symbol id="icon-cog" viewBox="0 0 32 32">
<title>cog</title>
<path class="path1" d="M19.805 32.188h-7.579l-0.763-4.58c-0.105-0.042-0.21-0.085-0.313-0.13l-3.778 2.699-5.36-5.359 2.694-3.771c-0.046-0.107-0.091-0.214-0.134-0.322l-4.571-0.762v-7.579l4.559-0.76c0.044-0.112 0.091-0.224 0.138-0.335l-2.686-3.76 5.36-5.36 3.753 2.681c0.114-0.049 0.229-0.097 0.344-0.143l0.758-4.549h7.579l0.758 4.549c0.115 0.046 0.23 0.093 0.344 0.143l3.753-2.681 5.359 5.36-2.686 3.76c0.048 0.111 0.094 0.223 0.139 0.335l4.559 0.76v7.579l-4.571 0.762c-0.043 0.108-0.088 0.216-0.134 0.322l2.694 3.771-5.359 5.359-3.779-2.699c-0.104 0.045-0.208 0.088-0.314 0.13l-0.763 4.58zM14.24 29.81h3.552l0.664-3.985 0.682-0.225c0.457-0.151 0.907-0.338 1.338-0.554l0.641-0.322 3.287 2.348 2.511-2.511-2.345-3.283 0.324-0.642c0.219-0.433 0.407-0.885 0.559-1.345l0.226-0.68 3.974-0.662v-3.552l-3.966-0.661-0.225-0.683c-0.153-0.464-0.341-0.921-0.561-1.357l-0.323-0.641 2.336-3.27-2.511-2.511-3.265 2.332-0.642-0.325c-0.438-0.222-0.897-0.412-1.364-0.566l-0.682-0.225-0.659-3.955h-3.552l-0.659 3.955-0.682 0.225c-0.467 0.154-0.926 0.345-1.364 0.566l-0.642 0.325-3.265-2.332-2.511 2.511 2.336 3.27-0.323 0.641c-0.219 0.436-0.408 0.893-0.561 1.357l-0.224 0.683-3.967 0.661v3.552l3.974 0.662 0.226 0.68c0.152 0.46 0.341 0.912 0.559 1.345l0.324 0.642-2.345 3.283 2.511 2.511 3.288-2.348 0.641 0.322c0.43 0.216 0.88 0.403 1.338 0.554l0.682 0.225 0.664 3.985zM17.017 12.168h-2.002c-1.652 0-3.003 1.351-3.003 3.003v2.002c0 1.652 1.351 3.003 3.003 3.003h2.002c1.652 0 3.003-1.351 3.003-3.003v-2.002c0-1.652-1.351-3.003-3.003-3.003zM18.018 17.173c0 0.551-0.45 1.001-1.001 1.001h-2.002c-0.551 0-1.001-0.45-1.001-1.001v-2.002c0-0.551 0.45-1.001 1.001-1.001h2.002c0.551 0 1.001 0.45 1.001 1.001v2.002z"></path>
</symbol>
<symbol id="icon-cancel2" viewBox="0 0 32 32">
<title>cancel2</title>
<path class="path1" d="M16.016 0.156c-8.845 0-16.016 7.17-16.016 16.016s7.17 16.016 16.016 16.016 16.016-7.17 16.016-16.016-7.17-16.016-16.016-16.016zM16.016 29.185c-7.187 0-13.013-5.826-13.013-13.013s5.826-13.013 13.013-13.013 13.013 5.826 13.013 13.013-5.826 13.013-13.013 13.013zM23.938 11.081l-2.831-2.831-5.091 5.091-5.091-5.091-2.831 2.831 5.091 5.091-5.091 5.091 2.831 2.831 5.091-5.091 5.091 5.091 2.831-2.831-5.091-5.091z"></path>
</symbol>
<symbol id="icon-code" viewBox="0 0 32 32">
<title>code</title>
<path class="path1" d="M18.018 23.179l3.003 3.003 10.010-10.010-10.010-10.010-3.003 3.003 7.007 7.007zM14.014 9.165l-3.003-3.003-10.010 10.010 10.010 10.010 3.003-3.003-7.007-7.007z"></path>
</symbol>
<symbol id="icon-info" viewBox="0 0 32 32">
<title>info</title>
<path class="path1" d="M16.016 0.156c-8.845 0-16.016 7.17-16.016 16.016s7.17 16.016 16.016 16.016 16.016-7.17 16.016-16.016-7.17-16.016-16.016-16.016zM14.014 7.664c0-0.826 0.676-1.501 1.501-1.501h1.001c0.826 0 1.501 0.676 1.501 1.501v1.001c0 0.826-0.676 1.501-1.501 1.501h-1.001c-0.826 0-1.501-0.676-1.501-1.501v-1.001zM20.020 26.182h-8.008v-2.002h2.002v-8.008h-2.002v-2.002h6.006v10.010h2.002v2.002z"></path>
</symbol>
<symbol id="icon-arrow-right2" viewBox="0 0 32 32">
<title>arrow-right2</title>
<path class="path1" d="M16.016 0.156c-8.845 0-16.016 7.17-16.016 16.016s7.17 16.016 16.016 16.016 16.016-7.17 16.016-16.016-7.17-16.016-16.016-16.016zM16.016 29.185c-7.187 0-13.013-5.826-13.013-13.013s5.826-13.013 13.013-13.013 13.013 5.826 13.013 13.013-5.826 13.013-13.013 13.013zM14.014 21.349v2.831h2.831l8.008-8.008-8.008-8.008h-2.831v2.831l3.175 3.175h-9.181v4.004h9.181z"></path>
</symbol>
<symbol id="icon-warning" viewBox="0 0 32 32">
<title>warning</title>
<path class="path1" d="M16.016 0.156c-8.845 0-16.016 7.17-16.016 16.016s7.17 16.016 16.016 16.016 16.016-7.17 16.016-16.016-7.17-16.016-16.016-16.016zM18.018 26.182h-4.004v-4.004h4.004v4.004zM18.018 18.174h-4.004v-12.012h4.004v12.012z"></path>
</symbol>
<symbol id="icon-check" viewBox="0 0 32 32">
<title>check</title>
<path class="path1" d="M28.027 5.161l-17.017 17.017-7.007-7.007-3.003 3.003 10.010 10.010 20.020-20.020z"></path>
</symbol>
<symbol id="icon-enter" viewBox="0 0 32 32">
<title>enter</title>
<path class="path1" d="M12.012 16.172h-10.010v-4.004h10.010v-4.004l6.006 6.006-6.006 6.006zM32.031 0.156v26.025l-12.012 6.006v-6.006h-12.012v-8.008h2.002v6.006h10.010v-18.018l8.008-4.004h-18.018v8.008h-2.002v-10.010z"></path>
</symbol>
<symbol id="icon-exit" viewBox="0 0 32 32">
<title>exit</title>
<path class="path1" d="M24.023 20.176v-4.004h-10.010v-4.004h10.010v-4.004l6.006 6.006zM22.021 18.174v8.008h-10.010v6.006l-12.012-6.006v-26.025h22.021v10.010h-2.002v-8.008h-16.016l8.008 4.004v18.018h8.008v-6.006z"></path>
</symbol>
<symbol id="icon-new" viewBox="0 0 32 32">
<title>new</title>
<path class="path1" d="M28.26 6.395l-4.469-4.469c-0.973-0.973-2.896-1.769-4.272-1.769h-15.015c-1.376 0-2.502 1.126-2.502 2.502v27.026c0 1.376 1.126 2.502 2.502 2.502h23.022c1.376 0 2.502-1.126 2.502-2.502v-19.019c0-1.376-0.796-3.299-1.769-4.272zM26.844 7.81c0.098 0.098 0.195 0.218 0.29 0.354h-5.113v-5.113c0.136 0.095 0.256 0.192 0.354 0.29l4.469 4.469zM28.027 29.685c0 0.271-0.229 0.5-0.5 0.5h-23.022c-0.271 0-0.5-0.229-0.5-0.5v-27.026c0-0.271 0.229-0.5 0.5-0.5h15.015c0.151 0 0.321 0.019 0.5 0.053v7.955h7.955c0.034 0.18 0.053 0.349 0.053 0.501v19.019z"></path>
</symbol>
<symbol id="icon-library" viewBox="0 0 32 32">
<title>library</title>
<path class="path1" d="M7.007 4.16h-6.006c-0.551 0-1.001 0.45-1.001 1.001v22.021c0 0.551 0.45 1.001 1.001 1.001h6.006c0.551 0 1.001-0.45 1.001-1.001v-22.021c0-0.551-0.45-1.001-1.001-1.001zM6.006 10.166h-4.004v-2.002h4.004v2.002zM17.017 4.16h-6.006c-0.551 0-1.001 0.45-1.001 1.001v22.021c0 0.551 0.45 1.001 1.001 1.001h6.006c0.551 0 1.001-0.45 1.001-1.001v-22.021c0-0.551-0.45-1.001-1.001-1.001zM16.016 10.166h-4.004v-2.002h4.004v2.002zM23.932 5.708l-5.363 2.702c-0.492 0.248-0.691 0.853-0.444 1.344l9.008 17.878c0.248 0.492 0.853 0.691 1.344 0.444l5.363-2.702c0.492-0.248 0.691-0.853 0.444-1.344l-9.008-17.878c-0.248-0.492-0.853-0.691-1.344-0.444v0z"></path>
</symbol>
<symbol id="icon-sync" viewBox="0 0 32 32">
<title>sync</title>
<path class="path1" d="M27.83 5.359c-2.928-3.197-7.137-5.203-11.814-5.203-8.845 0-16.016 7.17-16.016 16.016h3.003c0-7.187 5.826-13.013 13.013-13.013 3.848 0 7.305 1.671 9.687 4.326l-4.683 4.683h11.011v-11.011l-4.202 4.202zM29.028 16.172c0 7.187-5.826 13.013-13.013 13.013-3.848 0-7.305-1.671-9.687-4.326l4.682-4.683h-11.011v11.011l4.202-4.202c2.928 3.197 7.137 5.203 11.814 5.203 8.845 0 16.016-7.17 16.016-16.016h-3.003z"></path>
</symbol>
<symbol id="icon-info2" viewBox="0 0 32 32">
<title>info2</title>
<path class="path1" d="M16.016 0.156c-8.845 0-16.016 7.17-16.016 16.016s7.17 16.016 16.016 16.016 16.016-7.17 16.016-16.016-7.17-16.016-16.016-16.016zM16.016 29.185c-7.187 0-13.013-5.826-13.013-13.013s5.826-13.013 13.013-13.013 13.013 5.826 13.013 13.013-5.826 13.013-13.013 13.013zM14.014 8.164h4.004v4.004h-4.004zM20.020 24.18h-8.008v-2.002h2.002v-6.006h-2.002v-2.002h6.006v8.008h2.002z"></path>
</symbol>
<symbol id="icon-neutral" viewBox="0 0 32 32">
<title>neutral</title>
<path class="path1" d="M8.008 10.166c0 1.106 0.896 2.002 2.002 2.002s2.002-0.896 2.002-2.002-0.896-2.002-2.002-2.002-2.002 0.896-2.002 2.002zM20.020 10.166c0 1.106 0.896 2.002 2.002 2.002s2.002-0.896 2.002-2.002-0.896-2.002-2.002-2.002-2.002 0.896-2.002 2.002zM10.010 22.178h12.012v2.002h-12.012v-2.002zM16.016 0.156c-8.845 0-16.016 7.17-16.016 16.016s7.17 16.016 16.016 16.016 16.016-7.17 16.016-16.016-7.17-16.016-16.016-16.016zM16.016 30.186c-7.74 0-14.014-6.274-14.014-14.014s6.274-14.014 14.014-14.014 14.014 6.274 14.014 14.014-6.274 14.014-14.014 14.014z"></path>
</symbol>
<symbol id="icon-smile" viewBox="0 0 32 32">
<title>smile</title>
<path class="path1" d="M16.016 0.156c-8.845 0-16.016 7.17-16.016 16.016s7.17 16.016 16.016 16.016 16.016-7.17 16.016-16.016-7.17-16.016-16.016-16.016zM16.016 30.186c-7.74 0-14.014-6.274-14.014-14.014s6.274-14.014 14.014-14.014 14.014 6.274 14.014 14.014-6.274 14.014-14.014 14.014zM24.97 20.649l-1.791-0.895c-1.315 2.624-4.029 4.426-7.163 4.426s-5.849-1.802-7.163-4.426l-1.791 0.895c1.643 3.28 5.036 5.533 8.954 5.533s7.311-2.252 8.954-5.533zM12.012 10.166c0 1.106-0.896 2.002-2.002 2.002s-2.002-0.896-2.002-2.002c0-1.106 0.896-2.002 2.002-2.002s2.002 0.896 2.002 2.002zM24.023 10.166c0 1.106-0.896 2.002-2.002 2.002s-2.002-0.896-2.002-2.002c0-1.106 0.896-2.002 2.002-2.002s2.002 0.896 2.002 2.002z"></path>
</symbol>
<symbol id="icon-question" viewBox="0 0 32 32">
<title>question</title>
<path class="path1" d="M16.016 0.156c-8.845 0-16.016 7.17-16.016 16.016s7.17 16.016 16.016 16.016 16.016-7.17 16.016-16.016-7.17-16.016-16.016-16.016zM16.016 28.184c-1.106 0-2.002-0.896-2.002-2.002s0.896-2.002 2.002-2.002c1.106 0 2.002 0.896 2.002 2.002s-0.896 2.002-2.002 2.002zM20.187 16.768c-0.748 0.426-1.394 0.794-1.831 1.47-0.449 0.693-0.686 1.703-0.721 3.064-0.063 0.491-0.484 0.875-0.992 0.875h-1.254c-0.551 0-1.001-0.45-1.001-1.001h-0.003c0.060-1.965 0.468-3.514 1.24-4.706 0.869-1.341 2.023-2 2.951-2.529 1.286-0.733 1.818-1.036 1.818-2.775 0-0.846-0.417-1.659-1.174-2.289-0.843-0.702-1.981-1.089-3.205-1.089s-2.363 0.387-3.205 1.089c-0.757 0.631-1.174 1.444-1.174 2.289 0 0.551-0.45 1.001-1.001 1.001h-1.251c-0.551 0-1.001-0.45-1.001-1.001 0-1.828 0.833-3.529 2.344-4.789 1.426-1.188 3.304-1.843 5.288-1.843s3.862 0.654 5.288 1.843c1.512 1.26 2.344 2.96 2.344 4.789 0 3.629-2 4.769-3.461 5.601z"></path>
</symbol>
<symbol id="icon-move" viewBox="0 0 32 32">
<title>move</title>
<path class="path1" d="M24.023 8.164v6.006h-6.006v-6.006h6.006l-8.008-8.008-8.008 8.008h6.006v6.006h-6.006v-6.006l-8.008 8.008 8.008 8.008v-6.006h6.006v6.006h-6.006l8.008 8.008 8.008-8.008h-6.006v-6.006h6.006v6.006l8.008-8.008z"></path>
</symbol>
<symbol id="icon-moveup" viewBox="0 0 32 32">
<title>moveup</title>
<path class="path1" d="M22.021 16.172v12.012h2.002v-12.012h5.005l-6.006-6.006-6.006 6.006zM2.002 6.162h3.003v2.002h-3.003v-2.002zM6.006 6.162h3.003v2.002h-3.003v-2.002zM10.010 6.162h2.002v3.003h-2.002v-3.003zM2.002 13.169h2.002v3.003h-2.002v-3.003zM5.005 14.17h3.003v2.002h-3.003v-2.002zM9.009 14.17h3.003v2.002h-3.003v-2.002zM2.002 9.165h2.002v3.003h-2.002v-3.003zM10.010 10.166h2.002v3.003h-2.002v-3.003zM10.010 22.178v6.006h-6.006v-6.006h6.006zM12.012 20.176h-10.010v10.010h10.010v-10.010z"></path>
</symbol>
<symbol id="icon-movedown" viewBox="0 0 32 32">
<title>movedown</title>
<path class="path1" d="M24.023 22.178v-12.012h-2.002v12.012h-5.005l6.006 6.006 6.006-6.006zM10.010 8.164v6.006h-6.006v-6.006h6.006zM12.012 6.162h-10.010v10.010h10.010v-10.010zM2.002 20.176h3.003v2.002h-3.003v-2.002zM6.006 20.176h3.003v2.002h-3.003v-2.002zM10.010 20.176h2.002v3.003h-2.002v-3.003zM2.002 27.183h2.002v3.003h-2.002v-3.003zM5.005 28.184h3.003v2.002h-3.003v-2.002zM9.009 28.184h3.003v2.002h-3.003v-2.002zM2.002 23.179h2.002v3.003h-2.002v-3.003zM10.010 24.18h2.002v3.003h-2.002v-3.003z"></path>
</symbol>
<symbol id="icon-font" viewBox="0 0 32 32">
<title>font</title>
<path class="path1" d="M25.012 0.663c-2.832 0-4.649-0.507-7.565-0.507-9.424 0-13.819 5.367-13.819 10.819 0 3.212 1.521 4.268 4.522 4.268-0.211-0.465-0.592-0.972-0.592-3.254 0-6.382 2.409-8.241 5.494-8.368 0 0-2.531 24.817-9.878 27.794v0.772h9.903l3.379-16.016h6.189l1.379-4.004h-6.722l1.625-7.701c1.86 0.38 3.677 0.761 5.241 0.761 1.944 0 3.719-0.592 4.691-5.071-1.183 0.38-2.451 0.507-3.846 0.507z"></path>
</symbol>
<symbol id="icon-sort" viewBox="0 0 32 32">
<title>sort</title>
<path class="path1" d="M24.023 12.168l-8.008-8.008-8.008 8.008h16.016zM8.008 20.176l8.008 8.008 8.008-8.008h-16.016z"></path>
</symbol>
<symbol id="icon-upload" viewBox="0 0 32 32">
<title>upload</title>
<path class="path1" d="M5.005 12.168l11.011-11.011 11.011 11.011h-7.007v12.012h-8.008v-12.012zM28.027 16.172v12.012h-24.023v-12.012h-4.004v13.013c0 1.652 1.351 3.003 3.003 3.003h26.025c1.652 0 3.003-1.351 3.003-3.003v-13.013h-4.004z"></path>
</symbol>
<symbol id="icon-canvas" viewBox="0 0 32 32">
<title>canvas</title>
<path class="path1" d="M6.006 6.162v20.020h20.020v-20.020h-20.020zM24.023 24.18h-16.016v-16.016h16.016v16.016zM26.025 5.161h-2.002v-5.005h2.002v5.005zM8.008 0.156h-2.002v5.005h2.002v-5.005zM26.025 27.183h-2.002v5.005h2.002v-5.005zM8.008 27.183h-2.002v5.005h2.002v-5.005zM32.031 6.162h-5.005v2.002h5.005v-2.002zM5.005 6.162h-5.005v2.002h5.005v-2.002zM32.031 24.18h-5.005v2.002h5.005v-2.002zM5.005 24.18h-5.005v2.002h5.005v-2.002z"></path>
</symbol>
<symbol id="icon-align-bottom" viewBox="0 0 32 32">
<title>align-bottom</title>
<path class="path1" d="M6.006 26.182v-20.020h20.020v20.020h-20.020zM24.023 8.164h-16.016v16.016h16.016v-16.016zM26.025 27.183h-2.002v5.005h2.002v-5.005zM8.008 32.188h-2.002v-5.005h2.002v5.005zM26.025 5.161h-2.002v-5.005h2.002v5.005zM8.008 5.161h-2.002v-5.005h2.002v5.005zM32.031 26.182h-5.005v-2.002h5.005v2.002zM5.005 26.182h-5.005v-2.002h5.005v2.002zM32.031 8.164h-5.005v-2.002h5.005v2.002zM5.005 8.164h-5.005v-2.002h5.005v2.002zM20.020 20.176c0-2.211-1.793-4.004-4.004-4.004s-4.004 1.793-4.004 4.004c0 2.211 1.793 4.004 4.004 4.004s4.004-1.793 4.004-4.004z"></path>
</symbol>
<symbol id="icon-align-top" viewBox="0 0 32 32">
<title>align-top</title>
<path class="path1" d="M6.006 6.162v20.020h20.020v-20.020h-20.020zM24.023 24.18h-16.016v-16.016h16.016v16.016zM26.025 5.161h-2.002v-5.005h2.002v5.005zM8.008 0.156h-2.002v5.005h2.002v-5.005zM26.025 27.183h-2.002v5.005h2.002v-5.005zM8.008 27.183h-2.002v5.005h2.002v-5.005zM32.031 6.162h-5.005v2.002h5.005v-2.002zM5.005 6.162h-5.005v2.002h5.005v-2.002zM32.031 24.18h-5.005v2.002h5.005v-2.002zM5.005 24.18h-5.005v2.002h5.005v-2.002zM20.020 12.168c0 2.211-1.793 4.004-4.004 4.004s-4.004-1.793-4.004-4.004c0-2.211 1.793-4.004 4.004-4.004s4.004 1.793 4.004 4.004z"></path>
</symbol>
<symbol id="icon-align-right" viewBox="0 0 32 32">
<title>align-right</title>
<path class="path1" d="M26.025 6.162v20.020h-20.020v-20.020h20.020zM8.008 24.18h16.016v-16.016h-16.016v16.016zM6.006 5.161h2.002v-5.005h-2.002v5.005zM24.023 0.156h2.002v5.005h-2.002v-5.005zM6.006 27.183h2.002v5.005h-2.002v-5.005zM24.023 27.183h2.002v5.005h-2.002v-5.005zM0 6.162h5.005v2.002h-5.005v-2.002zM27.026 6.162h5.005v2.002h-5.005v-2.002zM0 24.18h5.005v2.002h-5.005v-2.002zM27.026 24.18h5.005v2.002h-5.005v-2.002zM16.016 16.172c0 2.211 1.793 4.004 4.004 4.004s4.004-1.793 4.004-4.004c0-2.211-1.793-4.004-4.004-4.004s-4.004 1.793-4.004 4.004z"></path>
</symbol>
<symbol id="icon-align-left" viewBox="0 0 32 32">
<title>align-left</title>
<path class="path1" d="M6.006 6.162v20.020h20.020v-20.020h-20.020zM24.023 24.18h-16.016v-16.016h16.016v16.016zM26.025 5.161h-2.002v-5.005h2.002v5.005zM8.008 0.156h-2.002v5.005h2.002v-5.005zM26.025 27.183h-2.002v5.005h2.002v-5.005zM8.008 27.183h-2.002v5.005h2.002v-5.005zM32.031 6.162h-5.005v2.002h5.005v-2.002zM5.005 6.162h-5.005v2.002h5.005v-2.002zM32.031 24.18h-5.005v2.002h5.005v-2.002zM5.005 24.18h-5.005v2.002h5.005v-2.002zM16.016 16.172c0 2.211-1.793 4.004-4.004 4.004s-4.004-1.793-4.004-4.004c0-2.211 1.793-4.004 4.004-4.004s4.004 1.793 4.004 4.004z"></path>
</symbol>
<symbol id="icon-align-center" viewBox="0 0 32 32">
<title>align-center</title>
<path class="path1" d="M6.006 6.162v20.020h20.020v-20.020h-20.020zM24.023 24.18h-16.016v-16.016h16.016v16.016zM26.025 5.161h-2.002v-5.005h2.002v5.005zM8.008 0.156h-2.002v5.005h2.002v-5.005zM26.025 27.183h-2.002v5.005h2.002v-5.005zM8.008 27.183h-2.002v5.005h2.002v-5.005zM32.031 6.162h-5.005v2.002h5.005v-2.002zM5.005 6.162h-5.005v2.002h5.005v-2.002zM32.031 24.18h-5.005v2.002h5.005v-2.002zM5.005 24.18h-5.005v2.002h5.005v-2.002zM20.020 16.172c0 2.211-1.793 4.004-4.004 4.004s-4.004-1.793-4.004-4.004c0-2.211 1.793-4.004 4.004-4.004s4.004 1.793 4.004 4.004z"></path>
</symbol>
<symbol id="icon-pencil" viewBox="0 0 32 32">
<title>pencil</title>
<path class="path1" d="M27.783 8.736l-2.383 2.38-4.596-4.451 2.453-2.451c1.248-1.248 3.275-1.248 4.525 0s1.25 3.273 0 4.522zM24.005 12.511l-14.649 14.635-6.236 1.735 1.71-6.256 14.594-14.58 4.581 4.466z"></path>
</symbol>
<symbol id="icon-enlarge2" viewBox="0 0 32 32">
<title>enlarge2</title>
<path class="path1" d="M32 0v13l-5-5-6 6-3-3 6-6-5-5zM14 21l-6 6 5 5h-13v-13l5 5 6-6z"></path>
</symbol>
<symbol id="icon-shrink2" viewBox="0 0 32 32">
<title>shrink2</title>
<path class="path1" d="M14 18v13l-5-5-6 6-3-3 6-6-5-5zM32 3l-6 6 5 5h-13v-13l5 5 6-6z"></path>
</symbol>
</defs>
</svg>
